<?xml version="1.0" standalone="no"?>
<!DOCTYPE svg PUBLIC "-//W3C//DTD SVG 20010904//EN"
 "http://www.w3.org/TR/2001/REC-SVG-20010904/DTD/svg10.dtd">
<svg version="1.0" xmlns="http://www.w3.org/2000/svg"
 width="1250.000000pt" height="1250.000000pt" viewBox="0 0 1250.000000 1250.000000"
 preserveAspectRatio="xMidYMid meet">
<metadata>
Created by potrace 1.11, written by Peter Selinger 2001-2013
</metadata>
<g transform="translate(0.000000,1250.000000) scale(0.100000,-0.100000)"
fill="#000000" stroke="none">
<path d="M5145 11226 c-62 -29 -97 -66 -126 -131 l-22 -50 0 -2397 0 -2398
-2402 0 -2401 0 -55 -27 c-62 -32 -113 -93 -130 -155 -11 -43 -8 -1357 4
-1428 7 -40 14 -92 22 -165 4 -27 8 -57 10 -65 2 -8 7 -35 10 -60 3 -25 8 -52
10 -60 2 -8 7 -29 10 -46 13 -80 80 -328 121 -447 141 -410 334 -767 603
-1112 47 -60 103 -130 125 -155 66 -74 317 -322 375 -370 30 -25 71 -59 90
-75 247 -210 659 -450 991 -579 149 -57 388 -133 475 -150 11 -2 49 -11 85
-19 36 -8 81 -18 100 -21 19 -3 46 -8 60 -11 14 -3 59 -10 100 -16 41 -5 85
-12 97 -14 160 -26 745 -27 888 -1 11 2 47 7 80 11 32 4 68 9 79 11 11 2 38 6
61 10 122 17 410 91 544 139 24 8 45 14 46 13 1 -2 11 -23 22 -48 29 -65 70
-110 128 -136 l50 -24 3500 0 3500 0 50 24 c120 57 174 188 129 316 -7 19
-330 881 -718 1915 -652 1737 -705 1881 -688 1893 9 7 69 47 132 89 368 244
692 577 929 958 65 104 193 350 215 413 8 20 23 57 34 82 23 49 93 257 112
330 18 66 18 69 36 145 16 72 17 79 34 180 28 174 35 271 35 510 0 198 -7 334
-19 405 -6 30 -16 95 -21 130 -12 82 -73 331 -97 400 -3 8 -16 44 -28 80 -23
71 -22 68 -70 185 -34 81 -153 320 -192 385 -68 111 -178 269 -255 365 -85
107 -337 367 -418 432 -201 162 -328 251 -486 340 -133 75 -289 151 -406 197
-88 34 -304 106 -368 122 -16 4 -34 8 -40 10 -18 5 -199 43 -235 49 -46 9 -64
11 -135 20 -33 3 -71 9 -85 13 -14 3 -1019 8 -2235 9 l-2210 3 -50 -24z"/>
</g>
</svg>
